<svg width="512" height="512" xmlns="http://www.w3.org/2000/svg" xmlns:xlink="http://www.w3.org/1999/xlink" overflow="hidden"><defs><clipPath id="clip0"><rect x="384" y="104" width="512" height="512"/></clipPath></defs><g clip-path="url(#clip0)" transform="translate(-384 -104)"><path d="M733.33 173.33C784.816 173.484 826.516 215.184 826.67 266.67L826.67 453.33C826.516 504.816 784.816 546.516 733.33 546.67L546.67 546.67C495.184 546.516 453.484 504.816 453.33 453.33L453.33 266.67C453.484 215.184 495.184 173.484 546.67 173.33L733.33 173.33M733.33 136 546.67 136C474.8 136 416 194.8 416 266.67L416 453.33C416 525.2 474.8 584 546.67 584L733.33 584C805.2 584 864 525.2 864 453.33L864 266.67C864 194.8 805.2 136 733.33 136Z" fill="#E87DE8"/><path d="M761.33 266.67C745.866 266.67 733.33 254.134 733.33 238.67 733.33 223.206 745.866 210.67 761.33 210.67 776.794 210.67 789.33 223.206 789.33 238.67 789.363 254.101 776.881 266.637 761.45 266.67 761.41 266.67 761.37 266.67 761.33 266.67ZM640 285.33C681.239 285.33 714.67 318.761 714.67 360 714.67 401.239 681.239 434.67 640 434.67 598.761 434.67 565.33 401.239 565.33 360 565.374 318.779 598.779 285.374 640 285.33M640 248C578.144 248 528 298.144 528 360 528 421.856 578.144 472 640 472 701.856 472 752 421.856 752 360 752 298.144 701.856 248 640 248Z" fill="#E87DE8"/></g></svg>