<svg width="512" height="512" xmlns="http://www.w3.org/2000/svg" xmlns:xlink="http://www.w3.org/1999/xlink" overflow="hidden"><defs><clipPath id="clip0"><rect x="384" y="104" width="512" height="512"/></clipPath></defs><g clip-path="url(#clip0)" transform="translate(-384 -104)"><path d="M880 213.5C861.995 221.324 842.944 226.478 823.45 228.8 843.937 216.804 859.343 197.746 866.78 175.2 847.411 186.526 826.256 194.473 804.22 198.7 785.468 179.047 759.474 167.95 732.31 168 677.89 168 633.85 211.4 633.85 264.9 633.811 272.342 634.664 279.761 636.39 287 557.484 283.301 483.789 246.526 433.39 185.7 424.646 200.441 420.021 217.26 420 234.4 420 268 437.53 297.7 464 315.1 448.317 314.728 432.956 310.577 419.22 303L419.22 304.2C419.22 351.2 453.22 390.3 498.22 399.2 489.758 401.456 481.038 402.599 472.28 402.6 466.066 402.611 459.866 402.008 453.77 400.8 466.28 439.3 502.69 467.3 545.82 468.1 510.774 495.109 467.746 509.707 423.5 509.6 415.646 509.588 407.8 509.121 400 508.2 445.012 536.942 497.334 552.145 550.74 552 732.1 552 831.18 404.3 831.18 276.2 831.18 272 831.07 267.8 830.87 263.7 850.101 250.021 866.738 233.021 880 213.5Z" fill="#FFFFFF"/></g></svg>